<?xml version="1.0" encoding="iso-8859-1"?>
<!-- Generator: Adobe Illustrator 19.0.0, SVG Export Plug-In . SVG Version: 6.00 Build 0)  -->
<svg version="1.1" id="Layer_1" xmlns="http://www.w3.org/2000/svg" xmlns:xlink="http://www.w3.org/1999/xlink" x="0px" y="0px"
	 viewBox="0 0 512 512" style="enable-background:new 0 0 512 512;" xml:space="preserve">
<polygon style="fill:#F6C958;" points="50.327,139.647 96.071,176.337 152.229,159.455 131.47,214.298 164.881,262.49 
	106.307,259.695 70.797,306.362 55.356,249.791 0,230.441 49.031,198.273 "/>
<polygon style="fill:#EE964B;" points="341.196,11.413 368.709,33.48 402.485,23.327 389.999,56.312 410.094,85.298 374.864,83.616 
	353.507,111.685 344.22,77.66 310.925,66.021 340.415,46.674 "/>
<g>
	<path style="fill:#DCDCDE;" d="M219.697,500.227h-35.721c0-86.054-43.221-151.278-68.985-182.499l27.551-22.735
		C171.357,329.912,219.697,403.006,219.697,500.227z"/>
	<path style="fill:#DCDCDE;" d="M318.865,500.227h-35.721c0-97.221,48.339-170.317,77.155-205.234l27.551,22.735
		C362.086,348.949,318.865,414.173,318.865,500.227z"/>
	<path style="fill:#DCDCDE;" d="M269.277,500.587l-35.714-0.719c1.066-52.963,2.679-132.999-11.677-195.893l34.826-7.949
		C272.046,363.199,270.38,445.877,269.277,500.587z"/>
</g>
<polygon style="fill:#DF8D46;" points="389.999,56.312 402.485,23.327 368.709,33.481 341.196,11.413 374.864,83.616 
	410.094,85.298 "/>
<polygon style="fill:#EE964B;" points="269.659,154.131 273.509,189.19 304.573,205.893 272.42,220.389 266.133,255.094 
	242.411,228.994 207.462,233.739 224.954,203.113 209.641,171.341 244.174,178.512 "/>
<polygon style="fill:#DF8D46;" points="272.42,220.389 304.573,205.893 273.509,189.19 269.659,154.131 242.411,228.994 
	266.133,255.094 "/>
<polygon style="fill:#EE964B;" points="142.818,34.637 145.429,58.415 166.498,69.744 144.69,79.576 140.426,103.115 
	124.337,85.412 100.632,88.631 112.496,67.859 102.111,46.309 125.532,51.173 "/>
<polygon style="fill:#DF8D46;" points="144.69,79.576 166.498,69.744 145.429,58.415 142.818,34.637 124.337,85.412 
	140.426,103.115 "/>
<polygon style="fill:#F6C958;" points="220.64,66.169 239.3,81.136 262.209,74.25 253.741,96.622 267.37,116.282 243.475,115.141 
	228.99,134.178 222.69,111.101 200.109,103.207 220.11,90.085 "/>
<g>
	<polygon style="fill:#E5BC53;" points="253.741,96.622 262.209,74.25 239.3,81.138 220.64,66.169 243.475,115.141 267.37,116.282 	
		"/>
	<polygon style="fill:#E5BC53;" points="131.47,214.298 152.229,159.455 96.071,176.337 50.327,139.647 106.307,259.695 
		164.881,262.49 	"/>
	<polygon style="fill:#E5BC53;" points="461.673,139.647 415.929,176.337 359.771,159.455 380.53,214.298 347.119,262.49 
		405.693,259.695 441.203,306.362 456.644,249.791 512,230.441 462.969,198.273 	"/>
</g>
<polygon style="fill:#F6C958;" points="380.53,214.298 359.771,159.455 415.929,176.337 461.673,139.647 405.693,259.695 
	347.119,262.49 "/>
<g>
</g>
<g>
</g>
<g>
</g>
<g>
</g>
<g>
</g>
<g>
</g>
<g>
</g>
<g>
</g>
<g>
</g>
<g>
</g>
<g>
</g>
<g>
</g>
<g>
</g>
<g>
</g>
<g>
</g>
</svg>
